<?xml version="1.0" encoding="UTF-8"?>
<svg version="1.1" xmlns="http://www.w3.org/2000/svg" width="1536" height="1024">
<path d="M0 0 C506.88 0 1013.76 0 1536 0 C1536 337.92 1536 675.84 1536 1024 C1029.12 1024 522.24 1024 0 1024 C0 686.08 0 348.16 0 0 Z " fill="#FDFDFD" transform="translate(0,0)"/>
<path d="M0 0 C3.35923581 0.55767418 6.73029696 0.92115718 10.11328125 1.30908203 C25.91486871 3.41939176 42.66047186 8.52510189 57.10546875 15.37939453 C59.77827626 16.6227885 62.50469651 17.70605661 65.23828125 18.80908203 C69.72237811 20.66417794 73.92618443 22.74281586 78.125 25.16845703 C81.42597511 27.04775524 84.82919841 28.69803227 88.23828125 30.37158203 C88.23828125 31.03158203 88.23828125 31.69158203 88.23828125 32.37158203 C88.93050781 32.61134766 89.62273437 32.85111328 90.3359375 33.09814453 C93.75614213 34.59879959 96.66626217 36.56733366 99.67578125 38.74658203 C100.2805127 39.18212402 100.88524414 39.61766602 101.50830078 40.06640625 C130.36622826 61.18614496 130.36622826 61.18614496 132.91015625 73.84423828 C133.97241161 82.02613377 132.25471587 88.83688089 127.23828125 95.37158203 C121.38003965 101.93488634 114.90833483 107.94094465 108.203125 113.62548828 C105.73557122 115.81832435 103.43353305 118.14874923 101.11328125 120.49658203 C97.62670719 124.01533985 94.20345445 127.39770213 90.23828125 130.37158203 C89.57828125 130.37158203 88.91828125 130.37158203 88.23828125 130.37158203 C88.23828125 131.03158203 88.23828125 131.69158203 88.23828125 132.37158203 C81.89206777 135.24533908 76.20243159 136.55490563 69.23828125 135.37158203 C63.1662057 132.875481 58.76045835 129.05530791 54.3125 124.34814453 C49.46569013 119.72952721 43.81624438 116.04372923 38.23828125 112.37158203 C37.63902832 111.97648437 37.03977539 111.58138672 36.42236328 111.17431641 C7.16812442 92.34145504 -28.23573729 88.64182458 -61.76171875 95.37158203 C-62.82261719 95.56494141 -63.88351562 95.75830078 -64.9765625 95.95751953 C-82.57694281 99.67556969 -99.65993784 109.54452528 -113.76171875 120.37158203 C-114.61894531 121.02255859 -115.47617187 121.67353516 -116.359375 122.34423828 C-142.6615648 142.79246312 -157.98855712 171.95962309 -162.1875 204.78564453 C-163.81408799 219.31649725 -162.96180461 233.134163 -159.76171875 247.37158203 C-159.54515625 248.35255859 -159.32859375 249.33353516 -159.10546875 250.34423828 C-154.54667023 268.7693823 -145.31655601 286.16601617 -132.76171875 300.37158203 C-131.941875 301.33451172 -131.12203125 302.29744141 -130.27734375 303.28955078 C-110.05975057 326.60012011 -78.51043105 343.01300016 -47.72253418 345.53887939 C-42.67431342 345.85003108 -37.63102974 345.93062915 -32.57421875 345.93408203 C-31.89342255 345.93698242 -31.21262634 345.93988281 -30.51119995 345.94287109 C-0.62452701 345.92840316 31.28311523 334.38498639 53.15234375 313.54785156 C54.31881439 312.36871532 55.4753392 311.17958276 56.61767578 309.97705078 C63.10856028 303.54679219 69.16859117 302.0137805 78.04907227 301.9909668 C86.87400564 302.18857698 91.63511114 305.63316337 97.80078125 311.74658203 C98.54199219 312.52517578 99.28320312 313.30376953 100.046875 314.10595703 C102.07079609 316.19842447 104.15258453 318.10535015 106.36328125 319.99658203 C109.55199106 322.73156238 112.5071001 325.61791356 115.44921875 328.61376953 C117.99213505 331.11226808 120.69124617 333.4153625 123.38671875 335.74658203 C129.19784466 340.84664191 135.46205124 346.34991893 136.49609375 354.37158203 C136.94421404 362.97549158 133.73981623 368.92739316 128.17578125 375.30908203 C108.25610157 396.29936339 82.37368769 412.35412647 55.23828125 422.37158203 C53.51544922 423.04640625 53.51544922 423.04640625 51.7578125 423.73486328 C-2.71152147 444.52989002 -63.72514823 441.51195794 -117.76171875 421.37158203 C-117.76171875 420.71158203 -117.76171875 420.05158203 -117.76171875 419.37158203 C-118.70789063 419.30712891 -119.6540625 419.24267578 -120.62890625 419.17626953 C-125.86295468 418.42553787 -130.24740164 415.91560558 -134.88671875 413.49658203 C-135.76714844 413.04927734 -136.64757812 412.60197266 -137.5546875 412.14111328 C-146.85517318 407.38566133 -146.85517318 407.38566133 -149.76171875 405.37158203 C-149.76171875 404.71158203 -149.76171875 404.05158203 -149.76171875 403.37158203 C-150.72078125 403.03126953 -150.72078125 403.03126953 -151.69921875 402.68408203 C-158.95784546 399.57324201 -164.96639946 395.70903185 -170.76171875 390.37158203 C-176.12501231 385.50212493 -181.67408157 381.19441807 -187.63671875 377.07080078 C-188.68859375 376.2296875 -188.68859375 376.2296875 -189.76171875 375.37158203 C-189.76171875 374.71158203 -189.76171875 374.05158203 -189.76171875 373.37158203 C-190.62796875 373.00033203 -190.62796875 373.00033203 -191.51171875 372.62158203 C-194.09111854 371.18858215 -195.82293467 369.58733527 -197.76171875 367.37158203 C-197.76171875 366.71158203 -197.76171875 366.05158203 -197.76171875 365.37158203 C-198.42171875 365.37158203 -199.08171875 365.37158203 -199.76171875 365.37158203 C-200.44234375 364.22689453 -200.44234375 364.22689453 -201.13671875 363.05908203 C-202.78787333 360.32832637 -204.23843661 359.22198893 -206.76171875 357.37158203 C-207.25671875 355.88658203 -207.25671875 355.88658203 -207.76171875 354.37158203 C-208.75171875 353.71158203 -209.74171875 353.05158203 -210.76171875 352.37158203 C-211.70540095 350.70441015 -212.64870971 349.03504611 -213.50390625 347.32080078 C-214.75781742 345.20551141 -214.75781742 345.20551141 -217.00390625 343.26611328 C-220.72584971 339.35965421 -223.2747621 335.00025872 -226.01171875 330.37158203 C-226.553125 329.48212891 -227.09453125 328.59267578 -227.65234375 327.67626953 C-228.16796875 326.81259766 -228.68359375 325.94892578 -229.21484375 325.05908203 C-229.68051758 324.27919922 -230.14619141 323.49931641 -230.62597656 322.69580078 C-231.82250892 320.2471791 -232.34726317 318.05544909 -232.76171875 315.37158203 C-233.42171875 315.37158203 -234.08171875 315.37158203 -234.76171875 315.37158203 C-235.09171875 313.39158203 -235.42171875 311.41158203 -235.76171875 309.37158203 C-236.42171875 309.37158203 -237.08171875 309.37158203 -237.76171875 309.37158203 C-238.9388622 306.32976002 -240.11025932 303.2859687 -241.2734375 300.23876953 C-242.23164144 297.73289229 -243.21613281 295.24346562 -244.21875 292.75439453 C-259.19451101 255.18841529 -262.13771483 211.84087837 -253.76171875 172.37158203 C-253.55804687 171.40945801 -253.354375 170.44733398 -253.14453125 169.45605469 C-242.19346758 119.66082459 -211.16267388 70.43827502 -168.76171875 41.37158203 C-167.6317749 40.58025879 -167.6317749 40.58025879 -166.47900391 39.77294922 C-137.79903025 19.74550214 -106.96415144 5.9026718 -72.20117188 0.74365234 C-69.710787 0.36381382 -67.22940294 -0.05653706 -64.74609375 -0.47998047 C-43.17490719 -3.98852268 -21.50801391 -3.77638636 0 0 Z " fill="#5EA0F0" transform="translate(821.76171875,280.62841796875)"/>
<path d="M0 0 C0.66 0.33 1.32 0.66 2 1 C1.70351563 1.95519531 1.40703125 2.91039062 1.1015625 3.89453125 C-4.64214503 24.09880756 -4.57595446 45.64123963 0 66 C0.2165625 66.98097656 0.433125 67.96195313 0.65625 68.97265625 C5.21504852 87.39780027 14.44516274 104.79443414 27 119 C27.81984375 119.96292969 28.6396875 120.92585937 29.484375 121.91796875 C49.70196818 145.22853808 81.2512877 161.64141813 112.03918457 164.16729736 C117.08740533 164.47844905 122.13068901 164.55904712 127.1875 164.5625 C127.8682962 164.56540039 128.54909241 164.56830078 129.2505188 164.57128906 C159.13719174 164.55682113 191.04483398 153.01340436 212.9140625 132.17626953 C214.08053314 130.99713329 215.23705795 129.80800073 216.37939453 128.60546875 C222.87027903 122.17521016 228.93030992 120.64219847 237.81079102 120.61938477 C246.63572439 120.81699495 251.39682989 124.26158134 257.5625 130.375 C258.30371094 131.15359375 259.04492188 131.9321875 259.80859375 132.734375 C261.83251484 134.82684244 263.91430328 136.73376812 266.125 138.625 C269.31370981 141.35998035 272.26881885 144.24633153 275.2109375 147.2421875 C277.7538538 149.74068605 280.45296492 152.04378047 283.1484375 154.375 C288.95956341 159.47505987 295.22376999 164.9783369 296.2578125 173 C296.70593279 181.60390955 293.50153498 187.55581113 287.9375 193.9375 C268.01782032 214.92778136 242.13540644 230.98254444 215 241 C213.27716797 241.67482422 213.27716797 241.67482422 211.51953125 242.36328125 C172.99180668 257.07220101 129.50076543 260.12474198 89 253 C89.33 251.68 89.66 250.36 90 249 C89.01 249 88.02 249 87 249 C87 248.34 87 247.68 87 247 C84.03 246.34 81.06 245.68 78 245 C78 244.34 78 243.68 78 243 C76.02 243 74.04 243 72 243 C72 242.34 72 241.68 72 241 C70.95779297 241.11214844 70.95779297 241.11214844 69.89453125 241.2265625 C66.0502046 240.92565704 63.92483551 239.44534391 60.6875 237.375 C60.11427002 237.01035645 59.54104004 236.64571289 58.95043945 236.27001953 C55.12932431 233.81239549 51.42448503 231.23871804 47.8515625 228.43359375 C46.52327791 227.405154 45.15872877 226.42291746 43.7734375 225.47265625 C43.04382813 224.96605469 42.31421875 224.45945312 41.5625 223.9375 C40.57443359 223.27041016 40.57443359 223.27041016 39.56640625 222.58984375 C38 221 38 221 37.63671875 218.67578125 C36.71273279 214.79277276 34.09515822 212.84920974 31.25 210.25 C4.4661781 184.5765814 -8.64999008 151.39517481 -17 116 C-17.495 116.99 -17.495 116.99 -18 118 C-18.66 118 -19.32 118 -20 118 C-22.12562602 104.66961129 -23.29923423 91.49294333 -23.3125 78 C-23.31765625 76.73140137 -23.3228125 75.46280273 -23.328125 74.15576172 C-23.27997315 67.71803086 -22.83290899 62.16340826 -21 56 C-20.30822712 52.3282824 -19.63037327 48.65523271 -18.9765625 44.9765625 C-18 42 -18 42 -15.92578125 40.8125 C-15.29027344 40.544375 -14.65476562 40.27625 -14 40 C-13.75712458 37.9876037 -13.53455183 35.97137641 -13.39453125 33.94921875 C-12.04582193 23.86728275 -7.74430578 6.73709838 0 0 Z " fill="#8AD685" transform="translate(662,462)"/>
<path d="M0 0 C26.87040523 -0.69086692 52.7867852 2.59848373 78.31591797 11.078125 C78.31591797 12.068125 78.31591797 13.058125 78.31591797 14.078125 C77.64512207 13.91731445 76.97432617 13.75650391 76.28320312 13.59082031 C69.85757083 12.48058271 63.20184498 12.83457155 56.69091797 12.828125 C55.50657669 12.82611588 55.50657669 12.82611588 54.29830933 12.82406616 C42.36793297 12.82846801 30.99210891 13.45893751 19.31591797 16.078125 C18.27177734 16.27148438 17.22763672 16.46484375 16.15185547 16.6640625 C-1.45868468 20.31908027 -18.59127365 30.25795717 -32.68408203 41.078125 C-33.54130859 41.72910156 -34.39853516 42.38007813 -35.28173828 43.05078125 C-53.07779905 56.88604951 -65.09551167 73.82076704 -73.3503418 94.6796875 C-75.49620596 99.94343689 -77.57412691 103.07978208 -81.68408203 107.078125 C-83.14861128 109.72862228 -84.20097654 112.49022726 -85.24658203 115.328125 C-85.54467773 116.10865234 -85.84277344 116.88917969 -86.14990234 117.69335938 C-88.45312767 123.93387195 -90.10273155 130.24022417 -91.35424805 136.77050781 C-92.38230166 141.87693809 -92.38230166 141.87693809 -95.68408203 144.078125 C-96.64292304 147.13959572 -96.64292304 147.13959572 -97.24658203 150.703125 C-97.95974327 154.41801009 -98.66440984 158.01295639 -99.75830078 161.63671875 C-101.32595814 167.8089503 -100.97810205 174.1920704 -100.93408203 180.515625 C-100.93230957 181.18087189 -100.93053711 181.84611877 -100.92871094 182.53152466 C-100.90002344 191.69373308 -100.49402595 200.66662034 -99.12158203 209.73046875 C-98.6660299 213.21625606 -98.61233077 216.56679753 -98.68408203 220.078125 C-98.02408203 220.078125 -97.36408203 220.078125 -96.68408203 220.078125 C-96.35408203 219.088125 -96.02408203 218.098125 -95.68408203 217.078125 C-95.35408203 217.078125 -95.02408203 217.078125 -94.68408203 217.078125 C-94.40435547 218.36203125 -94.12462891 219.6459375 -93.83642578 220.96875 C-89.63404808 239.72648953 -83.87201906 257.1675109 -74.68408203 274.078125 C-74.3632666 274.68350098 -74.04245117 275.28887695 -73.71191406 275.91259766 C-66.22528541 290.00753539 -56.52029982 301.49575136 -45.68408203 313.078125 C-39.68408203 319.58679552 -39.68408203 319.58679552 -39.68408203 323.078125 C-34.69532925 328.05455987 -28.2677104 331.75697624 -22.30517578 335.4453125 C-20.71303207 336.43713973 -19.13702905 337.4564607 -17.59423828 338.5234375 C-12.30682286 342.1348828 -6.89994554 343.67269998 -0.68408203 345.078125 C-0.68408203 345.738125 -0.68408203 346.398125 -0.68408203 347.078125 C0.42966797 347.01625 0.42966797 347.01625 1.56591797 346.953125 C4.40350749 347.08210634 5.90365734 347.64863722 8.31591797 349.078125 C8.31591797 349.738125 8.31591797 350.398125 8.31591797 351.078125 C9.30591797 351.078125 10.29591797 351.078125 11.31591797 351.078125 C11.31591797 352.068125 11.31591797 353.058125 11.31591797 354.078125 C5.4541903 354.3391736 0.31312645 353.40406588 -5.37158203 352.015625 C-6.726427 351.6904187 -6.726427 351.6904187 -8.10864258 351.35864258 C-17.86509304 348.92650429 -27.27076903 345.58663157 -36.68408203 342.078125 C-36.68408203 341.418125 -36.68408203 340.758125 -36.68408203 340.078125 C-37.63025391 340.01367188 -38.57642578 339.94921875 -39.55126953 339.8828125 C-44.78531796 339.13208084 -49.16976492 336.62214855 -53.80908203 334.203125 C-54.68951172 333.75582031 -55.56994141 333.30851562 -56.47705078 332.84765625 C-65.77753646 328.0922043 -65.77753646 328.0922043 -68.68408203 326.078125 C-68.68408203 325.418125 -68.68408203 324.758125 -68.68408203 324.078125 C-69.64314453 323.7378125 -69.64314453 323.7378125 -70.62158203 323.390625 C-77.88020874 320.27978498 -83.88876274 316.41557482 -89.68408203 311.078125 C-95.04737559 306.2086679 -100.59644485 301.90096104 -106.55908203 297.77734375 C-107.61095703 296.93623047 -107.61095703 296.93623047 -108.68408203 296.078125 C-108.68408203 295.418125 -108.68408203 294.758125 -108.68408203 294.078125 C-109.55033203 293.706875 -109.55033203 293.706875 -110.43408203 293.328125 C-113.01348182 291.89512512 -114.74529795 290.29387824 -116.68408203 288.078125 C-116.68408203 287.418125 -116.68408203 286.758125 -116.68408203 286.078125 C-117.34408203 286.078125 -118.00408203 286.078125 -118.68408203 286.078125 C-119.36470703 284.9334375 -119.36470703 284.9334375 -120.05908203 283.765625 C-121.71023662 281.03486934 -123.16079989 279.9285319 -125.68408203 278.078125 C-126.17908203 276.593125 -126.17908203 276.593125 -126.68408203 275.078125 C-127.67408203 274.418125 -128.66408203 273.758125 -129.68408203 273.078125 C-130.62776423 271.41095312 -131.57107299 269.74158908 -132.42626953 268.02734375 C-133.6801807 265.91205438 -133.6801807 265.91205438 -135.92626953 263.97265625 C-139.648213 260.06619717 -142.19712538 255.70680169 -144.93408203 251.078125 C-145.47548828 250.18867187 -146.01689453 249.29921875 -146.57470703 248.3828125 C-147.09033203 247.51914062 -147.60595703 246.65546875 -148.13720703 245.765625 C-148.60288086 244.98574219 -149.06855469 244.20585938 -149.54833984 243.40234375 C-150.7448722 240.95372207 -151.26962645 238.76199206 -151.68408203 236.078125 C-152.34408203 236.078125 -153.00408203 236.078125 -153.68408203 236.078125 C-154.01408203 234.098125 -154.34408203 232.118125 -154.68408203 230.078125 C-155.34408203 230.078125 -156.00408203 230.078125 -156.68408203 230.078125 C-157.86122548 227.03630299 -159.0326226 223.99251167 -160.19580078 220.9453125 C-161.15400472 218.43943526 -162.13849609 215.95000859 -163.14111328 213.4609375 C-176.09793369 180.91003879 -181.34554616 146.11697743 -167.68408203 113.078125 C-166.86844236 110.89179373 -166.05594481 108.70428769 -165.24658203 106.515625 C-162.80854754 100.14878332 -159.84787501 94.11216316 -156.68408203 88.078125 C-156.02408203 88.078125 -155.36408203 88.078125 -154.68408203 88.078125 C-154.45591797 87.23636719 -154.22775391 86.39460938 -153.99267578 85.52734375 C-152.4461698 81.45103097 -150.32246918 78.37346231 -147.74658203 74.890625 C-147.30378906 74.27509766 -146.86099609 73.65957031 -146.40478516 73.02539062 C-138.84546246 62.62709725 -138.84546246 62.62709725 -133.83105469 61.75634766 C-130.83713317 60.81057622 -129.4313278 59.11273014 -127.27001953 56.8515625 C-126.42568359 55.98402344 -125.58134766 55.11648438 -124.71142578 54.22265625 C-122.96611676 52.4002349 -121.22131118 50.57733127 -119.47705078 48.75390625 C-113.94412246 43.07030817 -108.34383347 38.37897649 -101.68408203 34.078125 C-100.51326058 33.28812863 -99.34265776 32.49780806 -98.17236328 31.70703125 C-68.70854059 12.53561402 -35.32790972 1.02828189 0 0 Z " fill="#6FBDBB" transform="translate(740.68408203125,359.921875)"/>
<path d="M0 0 C0.93748331 3.03451922 0.99345512 5.18094133 0.44140625 8.296875 C-3.02359833 29.75819688 -2.90639167 51.56695525 -1.12109375 73.2109375 C-1 76 -1 76 -2 78 C-2.66 78 -3.32 78 -4 78 C-6.12562602 64.66961129 -7.29923423 51.49294333 -7.3125 38 C-7.31765625 36.73140137 -7.3228125 35.46280273 -7.328125 34.15576172 C-7.27998901 27.72015229 -6.84505284 22.15912183 -5 16 C-4.2400119 12.32925746 -3.50580163 8.65444958 -2.78125 4.9765625 C-2 2 -2 2 0 0 Z " fill="#89D0B1" transform="translate(646,502)"/>
<path d="M0 0 C0.66 0.33 1.32 0.66 2 1 C1.40574219 1.66902344 0.81148437 2.33804687 0.19921875 3.02734375 C-8.8707663 13.53611336 -16.61265852 25.05114934 -23.09765625 37.3359375 C-23.9705192 38.9456328 -24.98427613 40.47641419 -26 42 C-26.5303155 43.924129 -27.0037561 45.86432825 -27.4375 47.8125 C-28.50197829 52.26833124 -29.7985969 55.96409431 -32 60 C-34.13520099 64.93964408 -35.50486124 69.82657475 -36.47265625 75.1171875 C-37 77 -37 77 -39 79 C-39.66540384 71.84690868 -37.23775562 65.72100995 -35 59 C-34.69964844 58.00484375 -34.39929688 57.0096875 -34.08984375 55.984375 C-31.95019029 49.05597331 -29.02741216 42.73630706 -25.68359375 36.32421875 C-23.96346772 32.92786781 -22.46455608 29.51226366 -21 26 C-20.34 26 -19.68 26 -19 26 C-18.77183594 25.15824219 -18.54367187 24.31648438 -18.30859375 23.44921875 C-16.76208777 19.37290597 -14.63838715 16.29533731 -12.0625 12.8125 C-11.61970703 12.19697266 -11.17691406 11.58144531 -10.72070312 10.94726562 C-7.51459564 6.53707605 -4.40061135 3.1866496 0 0 Z " fill="#6DBBD9" transform="translate(605,422)"/>
<path d="M0 0 C0.99128906 0.86882813 1.98257813 1.73765625 3.00390625 2.6328125 C14.28373754 12.28506462 26.52721335 19.8347948 40 26 C37.92446352 26.5534764 36.15634036 27 34 27 C34 26.34 34 25.68 34 25 C33.30519531 25.07476563 32.61039063 25.14953125 31.89453125 25.2265625 C28.0502046 24.92565704 25.92483551 23.44534391 22.6875 21.375 C21.82765503 20.82803467 21.82765503 20.82803467 20.95043945 20.27001953 C17.13024318 17.81298648 13.4247058 15.24179945 9.85546875 12.43359375 C8.51778447 11.40005663 7.13920647 10.4187042 5.73828125 9.47265625 C4.99964844 8.96605469 4.26101563 8.45945312 3.5 7.9375 C2.8296875 7.49277344 2.159375 7.04804687 1.46875 6.58984375 C0 5 0 5 -0.21875 2.31640625 C-0.1465625 1.55199219 -0.074375 0.78757812 0 0 Z " fill="#BBE78F" transform="translate(700,678)"/>
<path d="M0 0 C2.43848565 3.65772847 2.22037543 5.34397248 2.16015625 9.6953125 C2.15463745 10.35621887 2.14911865 11.01712524 2.14343262 11.69805908 C2.13110921 13.11049555 2.11450876 14.52290002 2.09402466 15.9352417 C2.04160384 19.57648403 2.01926379 23.2178256 2 26.859375 C1.99585587 27.57044403 1.99171173 28.28151306 1.98744202 29.01412964 C1.96494139 35.78115718 2.32293884 42.47069058 2.87890625 49.2109375 C3 52 3 52 2 54 C1.34 54 0.68 54 0 54 C-0.34401617 51.75160858 -0.67453235 49.50115124 -1 47.25 C-1.185625 45.99703125 -1.37125 44.7440625 -1.5625 43.453125 C-2.75241283 33.23970654 -1.82008523 22.95673641 -1 12.75 C-0.90460937 11.51636719 -0.80921875 10.28273438 -0.7109375 9.01171875 C-0.47804982 6.00746767 -0.24100659 3.00360877 0 0 Z " fill="#8FD6A5" transform="translate(642,526)"/>
<path d="M0 0 C1 2 1 2 0.51855469 3.85668945 C0.23915039 4.60136475 -0.04025391 5.34604004 -0.328125 6.11328125 C-0.63202148 6.94359863 -0.93591797 7.77391602 -1.24902344 8.62939453 C-1.5793457 9.51481934 -1.90966797 10.40024414 -2.25 11.3125 C-4.83505292 18.39788351 -6.95931222 25.23103506 -8.296875 32.6640625 C-9 35 -9 35 -12 37 C-13.02672001 40.33227362 -13.02672001 40.33227362 -13.6875 44.125 C-13.93886719 45.40632812 -14.19023438 46.68765625 -14.44921875 48.0078125 C-14.63097656 48.99523437 -14.81273437 49.98265625 -15 51 C-15.33 51 -15.66 51 -16 51 C-16.31663816 44.28727098 -15.15574012 38.48871128 -13.5 32 C-13.26152344 31.03449219 -13.02304687 30.06898438 -12.77734375 29.07421875 C-12.19312132 26.71396013 -11.60053719 24.35615018 -11 22 C-10.01 22 -9.02 22 -8 22 C-7.7525 20.741875 -7.505 19.48375 -7.25 18.1875 C-4.125 4.125 -4.125 4.125 0 0 Z " fill="#7CCCB4" transform="translate(657,467)"/>
<path d="M0 0 C0.75216797 0.25523437 0.75216797 0.25523437 1.51953125 0.515625 C4.32884781 1.41537204 7.15684481 2.21317333 10 3 C11.84851563 3.52207031 11.84851563 3.52207031 13.734375 4.0546875 C29.54096789 8.11049627 45.78311763 7.83163355 62 8 C62 8.33 62 8.66 62 9 C41.76243699 9.31781628 22.00716486 9.51958502 2 6 C2.33 4.68 2.66 3.36 3 2 C2.01 2 1.02 2 0 2 C0 1.34 0 0.68 0 0 Z " fill="#B0E391" transform="translate(749,709)"/>
<path d="M0 0 C0.66 0 1.32 0 2 0 C1.88623383 2.12563103 1.75864369 4.2505261 1.625 6.375 C1.55539062 7.55835938 1.48578125 8.74171875 1.4140625 9.9609375 C1 13 1 13 -1 15 C-1.6160465 17.35680175 -2.14726384 19.73631921 -2.625 22.125 C-2.88539063 23.40632812 -3.14578125 24.68765625 -3.4140625 26.0078125 C-3.70410156 27.48894531 -3.70410156 27.48894531 -4 29 C-4.33 29 -4.66 29 -5 29 C-5.31663816 22.28727098 -4.15574012 16.48871128 -2.5 10 C-2.26152344 9.03449219 -2.02304687 8.06898438 -1.77734375 7.07421875 C-1.19312132 4.71396013 -0.60053719 2.35615018 0 0 Z " fill="#7CCAC3" transform="translate(646,489)"/>
<path d="M0 0 C5.445 1.98 5.445 1.98 11 4 C11 4.66 11 5.32 11 6 C1.32411224 4.72614363 -8.3413112 3.39894722 -18 2 C-18 1.67 -18 1.34 -18 1 C-15.9377952 0.945652 -13.87517184 0.90705039 -11.8125 0.875 C-10.66394531 0.85179687 -9.51539063 0.82859375 -8.33203125 0.8046875 C-5.08259628 0.99515848 -2.91339479 1.60639873 0 3 C0 2.01 0 1.02 0 0 Z " fill="#528FE5" transform="translate(819,371)"/>
<path d="M0 0 C1.29635305 3.88905915 0.4084072 5.25371174 -1.125 9 C-1.54007813 10.051875 -1.95515625 11.10375 -2.3828125 12.1875 C-4.20176661 15.35089846 -5.75685933 16.42756816 -9 18 C-7.14086809 11.10164214 -4.20484217 5.75614317 0 0 Z " fill="#66C0A8" transform="translate(668,447)"/>
<path d="M0 0 C1.49376828 3.88568837 0.43417739 6.47074152 -0.875 10.3125 C-2.38153037 14.92559988 -3.55119702 19.17536793 -4 24 C-4.33 24 -4.66 24 -5 24 C-5 18.06 -5 12.12 -5 6 C-4.67 6.66 -4.34 7.32 -4 8 C-3.34 8 -2.68 8 -2 8 C-1.7834375 6.576875 -1.7834375 6.576875 -1.5625 5.125 C-1 2 -1 2 0 0 Z " fill="#4D6CE0" transform="translate(570,477)"/>
<path d="M0 0 C0.99626083 3.17021017 0.96516845 5.4973489 0.44140625 8.765625 C0.23354492 10.09980469 0.23354492 10.09980469 0.02148438 11.4609375 C-0.12998047 12.38132812 -0.28144531 13.30171875 -0.4375 14.25 C-0.58509766 15.18585937 -0.73269531 16.12171875 -0.88476562 17.0859375 C-1.24947522 19.39184331 -1.62144974 21.69633288 -2 24 C-2.33 24 -2.66 24 -3 24 C-3.05429278 21.29139335 -3.09381211 18.58389099 -3.125 15.875 C-3.14175781 15.11445312 -3.15851562 14.35390625 -3.17578125 13.5703125 C-3.21537013 8.97800294 -2.81109779 5.30638808 -1 1 C-0.67 0.67 -0.34 0.34 0 0 Z " fill="#80CEAA" transform="translate(646,502)"/>
<path d="M0 0 C0.66 0.33 1.32 0.66 2 1 C-2.95 5.95 -7.9 10.9 -13 16 C-13.33 15.01 -13.66 14.02 -14 13 C-13.01 12.67 -12.02 12.34 -11 12 C-11 11.34 -11 10.68 -11 10 C-9.35648543 8.63823078 -7.68477344 7.31037934 -6 6 C-4.3142876 4.35259924 -2.6436814 2.68933922 -1 1 C-0.67 0.67 -0.34 0.34 0 0 Z " fill="#57A7DE" transform="translate(621,407)"/>
<path d="M0 0 C0.33 0 0.66 0 1 0 C0.88506243 1.89646998 0.75760358 3.79218332 0.625 5.6875 C0.55539062 6.74324219 0.48578125 7.79898437 0.4140625 8.88671875 C0.01239911 11.90677269 -0.74069019 14.24078054 -2 17 C-2.33 17 -2.66 17 -3 17 C-3.40214229 10.83381819 -1.96818336 5.82254243 0 0 Z " fill="#6CACD3" transform="translate(569,484)"/>
<path d="M0 0 C0.33 0.66 0.66 1.32 1 2 C-0.25 5.0625 -0.25 5.0625 -2 8 C-2.99 8.33 -3.98 8.66 -5 9 C-3.7508258 5.54074837 -2.32472205 2.85306797 0 0 Z " fill="#5487DF" transform="translate(588,440)"/>
</svg>
